# xmcd
#
# Track frame offsets:
#	150
#	18917
#	30083
#	50316
#	69509
#	95933
#	113061
#	124573
#	142009
#	156000
#	175275
#	199331
#	214187
#
# Disc length: 3130 seconds
#
# Revision: 1
# Processed by: cddbd v1.5.2PL0 Copyright (c) Steve Scherf et al.
# Submitted via: audiograbber 1.83.01
#
DISCID=b10c380d
DTITLE=Roland Heinrich - Common Verse
DYEAR=2002
DGENRE=Americana
TTITLE0=Goodbye My Love
TTITLE1=Pierrot
TTITLE2=1852h
TTITLE3=Flower Song
TTITLE4=Fool's Vigil
TTITLE5=River Song
TTITLE6=Two-Face
TTITLE7=Silent Days Silent Skies
TTITLE8=Three Wishes, One Lament
TTITLE9=Sidewalk Song
TTITLE10=Lullaby
TTITLE11=There's A Way
TTITLE12=Rough and Rocky
EXTD=
EXTT0=
EXTT1=
EXTT2=
EXTT3=
EXTT4=
EXTT5=
EXTT6=
EXTT7=
EXTT8=
EXTT9=
EXTT10=
EXTT11=
EXTT12=
PLAYORDER=
